<svg xmlns="http://www.w3.org/2000/svg" viewBox="0 0 570 120" enable-background="new 0 0 570 120"><style type="text/css">.createjs-h-st0{fill:#405261;}</style><path class="createjs-h-st0" d="M116.5 30.9l-46.1-26.5c-.9-.5-2.1-.5-3 0l-46.1 26.5c-.9.5-1.5 1.5-1.5 2.6v53c0 1.1.6 2.1 1.5 2.6l46.1 26.5c.9.5 2.1.5 3 0l46.1-26.5c.9-.5 1.5-1.5 1.5-2.6v-53c0-1.1-.6-2.1-1.5-2.6zm-51.1-9.5c0 .2-.1.3-.3.4l-16.5 9.5c-.3.2-.3.7 0 .9l16.5 9.5c.2.1.3.3.3.4v6.9c0 .4-.4.6-.7.4l-30-17.2c-.3-.2-.3-.7 0-.9l30-17.3c.3-.2.7 0 .7.4v7zm37.7 10.8l-30 17.3c-.3.2-.7 0-.7-.4v-6.9c0-.2.1-.3.3-.4l16.5-9.5c.3-.2.3-.7 0-.9l-16.5-9.5c-.2-.1-.3-.3-.3-.4v-6.9c0-.4.4-.6.7-.4l30 17.3c.4 0 .4.5 0 .7zM215.5 77.4c.2.2.2.5.1.7-1.1 1.5-2.5 2.9-4 4.2-1.7 1.4-3.5 2.7-5.6 3.7-2 1.1-4.3 1.9-6.6 2.5-2.4.6-4.9.9-7.4.9-4.3 0-8.1-.7-11.7-2.2-3.5-1.5-6.6-3.5-9.1-6.1-2.5-2.6-4.5-5.7-5.9-9.2-1.4-3.6-2.1-7.5-2.1-11.7 0-4.1.7-8 2.1-11.6 1.4-3.6 3.4-6.7 5.9-9.4 2.5-2.7 5.6-4.8 9.2-6.3 3.6-1.5 7.5-2.3 11.8-2.3 5.2 0 9.8 1 13.7 2.9 3.8 1.8 6.9 4.5 9.4 7.9.2.2.1.5-.1.7l-7.9 7.6c-.2.2-.6.2-.7-.1-1.6-2.1-3.5-3.9-5.6-5.2-2.3-1.4-5-2.1-8.2-2.1-2.5 0-4.8.5-6.8 1.4s-3.7 2.2-5.1 3.8c-1.4 1.6-2.5 3.5-3.2 5.7-.8 2.2-1.1 4.4-1.1 6.8 0 2.5.4 4.8 1.1 6.9.8 2.1 1.8 4 3.2 5.5 1.4 1.6 3.1 2.8 5 3.7 2 .9 4.2 1.3 6.6 1.3 2 0 3.8-.2 5.2-.6 1.5-.4 2.8-1 3.9-1.7s2.2-1.5 3.1-2.4l2.3-2.4c.2-.2.5-.2.7 0l7.8 7.1zm6.6-44.9c0-.3.2-.5.5-.5h20.3c3.2 0 6.1.5 8.6 1.4 2.5.9 4.5 2.2 6.2 3.8 1.7 1.6 2.9 3.5 3.7 5.6.8 2.1 1.2 4.4 1.2 6.8 0 3.6-.8 6.8-2.4 9.5-1.5 2.6-3.6 4.7-6.3 6.3-.2.1-.3.4-.2.7l11.8 21.3c.2.3-.1.7-.4.7h-12.8c-.2 0-.4-.1-.4-.3l-10.1-20c-.1-.2-.3-.3-.4-.3h-6.2c-.3 0-.5.2-.5.5v19.6c0 .3-.2.5-.5.5h-11.3c-.3 0-.5-.2-.5-.5v-55.1zm20.1 24.8c2.4 0 4.2-.7 5.5-2.1 1.3-1.4 2-3.2 2-5.3 0-2.3-.7-4.1-2-5.5-1.3-1.3-3.2-2-5.5-2h-7.3c-.3 0-.5.2-.5.5v13.9c0 .3.2.5.5.5h7.3zm30.9-25.3h37.3c.3 0 .5.2.5.5v10.1c0 .3-.2.5-.5.5h-24.6c-.3 0-.5.2-.5.5v9.9c0 .3.2.5.5.5h18.9c.3 0 .5.2.5.5v9.8c0 .3-.2.5-.5.5h-18.9c-.3 0-.5.2-.5.5v11.1c0 .3.2.5.5.5h26.5c.3 0 .5.2.5.5v10.2c0 .3-.2.5-.5.5h-39.2c-.3 0-.5-.2-.5-.5v-55c0-.4.3-.6.5-.6zm64.2 0h13.3c.2 0 .4.1.5.3l20.1 55c.1.3-.1.7-.5.7h-12.7c-.2 0-.4-.1-.5-.3l-4.1-12.2c-.1-.2-.3-.3-.5-.3h-19c-.2 0-.4.1-.5.3l-4.1 12.2c-.1.2-.3.3-.5.3h-12.2c-.3 0-.6-.3-.5-.7l20.5-55c.3-.2.5-.3.7-.3zm12.8 32.7l-6.1-19.1c-.1-.5-.8-.5-1 0l-6.3 19.1c-.1.3.1.7.5.7h12.4c.4-.1.6-.4.5-.7zm33.3-21.6h-17.1c-.3 0-.5-.2-.5-.5v-10.1c0-.3.2-.5.5-.5h48c.3 0 .5.2.5.5v10.2c0 .3-.2.5-.5.5h-17.1c-.3 0-.5.2-.5.5v43.9c0 .3-.2.5-.5.5h-11.8c-.3 0-.5-.2-.5-.5v-44c0-.2-.3-.5-.5-.5zm39-11.1h37.3c.3 0 .5.2.5.5v10.1c0 .3-.2.5-.5.5h-24.6c-.3 0-.5.2-.5.5v9.9c0 .3.2.5.5.5h18.9c.3 0 .5.2.5.5v9.8c0 .3-.2.5-.5.5h-18.9c-.3 0-.5.2-.5.5v11.1c0 .3.2.5.5.5h26.5c.3 0 .5.2.5.5v10.2c0 .3-.2.5-.5.5h-39.2c-.3 0-.5-.2-.5-.5v-55c0-.4.2-.6.5-.6zm51.8 45c.2-.2.5-.2.7 0 1.5 1.7 3 2.9 4.6 3.7 1.7.8 3.6 1.3 5.9 1.3 1.3 0 2.6-.2 3.7-.6 1.1-.4 2.2-1.1 3.1-2 .9-.9 1.6-2 2.1-3.4s.8-3.1.8-5v-38.5c0-.3.2-.5.5-.5h7.1c.3 0 .5.2.5.5v39.1c0 3.2-.5 6-1.4 8.3-1 2.3-2.2 4.1-3.8 5.5-1.6 1.4-3.5 2.5-5.6 3.1-2.1.6-4.4 1-6.7 1-4.1 0-7.5-.7-10.2-2.2-2.5-1.4-4.6-3.1-6.3-5.2-.2-.2-.1-.5.1-.7l4.9-4.4zm40.9-2.3c.2-.2.5-.2.7 0 .7.8 1.5 1.6 2.3 2.4 1 .9 2.1 1.8 3.3 2.5 1.2.7 2.6 1.3 4.1 1.8 1.5.4 3.2.7 5 .7 3.7 0 6.6-.8 8.7-2.5 2.1-1.7 3.1-3.9 3.1-6.8 0-3.1-1.2-5.4-3.5-6.9-2.4-1.5-5.7-2.8-10.2-3.7-2.4-.5-4.6-1.2-6.6-2.1-2-.9-3.7-2-5.1-3.4-1.4-1.3-2.5-2.9-3.3-4.7-.8-1.8-1.2-3.8-1.2-6 0-2.1.4-4 1.2-5.9.8-1.8 2-3.5 3.5-4.9 1.6-1.4 3.5-2.5 5.9-3.4 2.4-.8 5.1-1.3 8.1-1.3 2.7 0 5.1.3 7.1.9 2 .6 3.7 1.3 5.1 2.1 1.4.8 2.5 1.7 3.4 2.6.7.7 1.2 1.3 1.6 1.8.2.2.2.5 0 .7l-4.7 4.3c-.2.2-.5.2-.7 0l-1.2-1.2c-.7-.6-1.5-1.3-2.6-1.9-1-.6-2.2-1.1-3.6-1.6-1.4-.4-3-.6-4.7-.6-1.8 0-3.3.2-4.6.7-1.3.5-2.4 1.1-3.2 1.8s-1.5 1.6-1.8 2.6c-.4 1-.6 1.9-.6 2.9 0 1.4.3 2.6.9 3.6.6 1 1.4 1.8 2.6 2.6 1.1.8 2.5 1.4 4.2 1.9 1.7.5 3.5 1 5.7 1.6 2.1.5 4.1 1.2 6.1 2s3.8 1.9 5.3 3.3c1.6 1.4 2.8 3.1 3.7 5 .9 2 1.4 4.4 1.4 7.3 0 2.4-.5 4.6-1.5 6.6s-2.4 3.8-4.2 5.2c-1.8 1.5-3.9 2.6-6.3 3.4-2.4.8-5 1.2-7.8 1.2-2.6 0-5-.3-7.2-.9-2.2-.6-4.1-1.4-5.9-2.4-1.8-1-3.3-2-4.6-3.2-1.2-1-2.2-2-3-3-.2-.2-.1-.5.1-.7l5-4.4z"/></svg>