<svg xmlns="http://www.w3.org/2000/svg" viewBox="0 0 64.947 31.96" enable-background="new 0 0 64.947 31.96"><path fill="#405261" d="M0 0h64.947v31.96h-64.947z"/><path fill="#FAFCFF" d="M22.898 20.668c.159.145.186.393.05.56-.284.349-.611.68-.982.996-.477.404-1.004.758-1.583 1.059-.579.302-1.206.54-1.88.714-.675.175-1.377.262-2.106.262-1.206 0-2.309-.206-3.309-.618-.999-.413-1.86-.988-2.582-1.726-.723-.738-1.281-1.61-1.678-2.618-.397-1.008-.596-2.114-.596-3.32 0-1.174.198-2.272.596-3.296.396-1.023.955-1.912 1.678-2.666.722-.753 1.586-1.349 2.594-1.785 1.008-.436 2.122-.654 3.345-.654 1.476 0 2.764.271 3.867.81.992.485 1.832 1.163 2.523 2.033.131.166.11.411-.043.558l-1.856 1.784c-.175.168-.449.14-.603-.047-.414-.502-.885-.917-1.414-1.246-.65-.405-1.428-.607-2.332-.607-.714 0-1.356.131-1.928.393-.571.263-1.056.623-1.452 1.083-.396.461-.702.996-.916 1.606-.215.611-.321 1.258-.321 1.94 0 .698.106 1.349.321 1.951.214.604.52 1.127.916 1.571s.872.793 1.428 1.047 1.183.381 1.881.381c.571 0 1.066-.06 1.487-.179.42-.119.793-.277 1.118-.476s.615-.429.869-.69l.453-.482c.275-.301.599-.03.599-.03l1.856 1.692zM25.298 8.389c0-.226.184-.41.41-.41h5.588c1.222 0 2.352.159 3.392.477 1.039.317 1.936.801 2.689 1.451.753.651 1.34 1.484 1.761 2.499.42 1.016.631 2.214.631 3.595 0 1.316-.215 2.463-.643 3.438-.429.976-1.02 1.793-1.773 2.451-.754.659-1.65 1.151-2.689 1.476-1.039.326-2.17.488-3.392.488h-5.564c-.226 0-.41-.184-.41-.41v-15.055zm5.783 12.275c1.587 0 2.809-.416 3.665-1.249.857-.833 1.286-1.979 1.286-3.439 0-.729-.1-1.393-.298-1.987s-.5-1.103-.904-1.523c-.405-.42-.916-.745-1.535-.976-.619-.229-1.356-.345-2.214-.345h-1.779c-.226 0-.41.184-.41.41v8.7c0 .226.184.41.41.41h1.779zM42.654 7.979h2.798c.137 0 .265.068.341.182l6.756 10.123v-9.895c0-.226.184-.41.41-.41h2.726c.226 0 .41.184.41.41v15.055c0 .226-.184.41-.41.41h-2.632c-.137 0-.264-.068-.34-.182l-6.923-10.314v10.086c0 .226-.184.41-.41.41h-2.726c-.226 0-.41-.184-.41-.41v-15.055c0-.227.183-.41.41-.41z"/></svg>