<svg xmlns="http://www.w3.org/2000/svg" viewBox="0 0 200 200" enable-background="new 0 0 200 200"><path fill="#405261" d="M147.6 46.6l-46.1-26.6c-.9-.5-2.1-.5-3 0l-46.1 26.6c-.9.5-1.5 1.5-1.5 2.6v53c0 1.1.6 2.1 1.5 2.6l46.1 26.5c.9.5 2.1.5 3 0l46.1-26.5c.9-.5 1.5-1.5 1.5-2.6v-53c0-1.1-.6-2.1-1.5-2.6zm-51.1-9.6c0 .2-.1.3-.3.4l-16.4 9.6c-.3.2-.3.7 0 .9l16.5 9.5c.2.1.3.3.3.4v6.9c0 .4-.4.6-.7.4l-30-17.2c-.3-.2-.3-.7 0-.9l30-17.3c.3-.2.7 0 .7.4v6.9zm37.7 10.8l-30 17.3c-.3.2-.7 0-.7-.4v-6.9c0-.2.1-.3.3-.4l16.5-9.5c.3-.2.3-.7 0-.9l-16.5-9.5c-.2-.1-.3-.3-.3-.4v-6.9c0-.4.4-.6.7-.4l30 17.3c.4.1.4.5 0 .7zM40 178.8c.1.1.1.2 0 .3-.5.6-1 1.2-1.7 1.8-.7.6-1.5 1.1-2.4 1.6-.9.5-1.8.8-2.8 1.1-1 .3-2.1.4-3.2.4-1.8 0-3.5-.3-5-.9-1.5-.6-2.8-1.5-3.9-2.6s-1.9-2.4-2.5-3.9c-.6-1.5-.9-3.2-.9-5 0-1.8.3-3.4.9-4.9.6-1.5 1.4-2.9 2.5-4s2.4-2 3.9-2.7c1.5-.7 3.2-1 5-1 2.2 0 4.1.4 5.8 1.2 1.6.8 2.9 1.9 4 3.3.1.1.1.2 0 .3l-3.4 3.2c-.1.1-.2.1-.3 0-.7-.9-1.5-1.6-2.4-2.2-1-.6-2.1-.9-3.5-.9-1.1 0-2 .2-2.9.6-.9.4-1.6.9-2.2 1.6-.6.7-1.1 1.5-1.4 2.4-.3.9-.5 1.9-.5 2.9s.2 2 .5 2.9c.3.9.8 1.7 1.4 2.4.6.7 1.3 1.2 2.1 1.6.8.4 1.8.6 2.8.6.9 0 1.6-.1 2.2-.3.6-.2 1.2-.4 1.7-.7.5-.3.9-.6 1.3-1l1-1c.1-.1.2-.1.3 0l3.6 2.9zm2.8-19.1c0-.1.1-.2.2-.2h8.6c1.4 0 2.6.2 3.6.6 1 .4 1.9.9 2.6 1.6.7.7 1.2 1.5 1.6 2.4.3.9.5 1.9.5 2.9 0 1.5-.3 2.9-1 4-.6 1.1-1.5 2-2.7 2.7-.1.1-.1.2-.1.3l5 9c.1.1 0 .3-.2.3h-5.4c-.1 0-.2 0-.2-.1l-4.3-8.5c0-.1-.1-.1-.2-.1h-2.7c-.1 0-.2.1-.2.2v8.3c0 .1-.1.2-.2.2h-4.7c-.1 0-.2-.1-.2-.2v-23.4zm8.6 10.5c1 0 1.8-.3 2.4-.9.6-.6.9-1.3.9-2.2 0-1-.3-1.7-.9-2.3-.6-.6-1.4-.9-2.4-.9h-3.1c-.1 0-.2.1-.2.2v5.9c0 .1.1.2.2.2h3.1zm13.1-10.7h15.8c.1 0 .2.1.2.2v4.3c0 .1-.1.2-.2.2h-10.4c-.1 0-.2.1-.2.2v4.2c0 .1.1.2.2.2h8c.1 0 .2.1.2.2v4.1c0 .1-.1.2-.2.2h-8c-.1 0-.2.1-.2.2v4.7c0 .1.1.2.2.2h11.2c.1 0 .2.1.2.2v4.3c0 .1-.1.2-.2.2h-16.6c-.1 0-.2-.1-.2-.2v-23.4c0 .1.1 0 .2 0zm27.2 0h5.7c.1 0 .2.1.2.1l8.5 23.4c.1.1-.1.3-.2.3h-5.4c-.1 0-.2-.1-.2-.1l-1.7-5.2c0-.1-.1-.1-.2-.1h-8.1c-.1 0-.2.1-.2.1l-1.7 5.2c0 .1-.1.1-.2.1h-5.2c-.1 0-.3-.1-.2-.3l8.7-23.4c.1 0 .2-.1.2-.1zm5.5 13.9l-2.6-8.1c-.1-.2-.3-.2-.4 0l-2.7 8.1c0 .1.1.3.2.3h5.3c.1 0 .2-.2.2-.3zm14.1-9.2h-7.3c-.1 0-.2-.1-.2-.2v-4.3c0-.1.1-.2.2-.2h20.4c.1 0 .2.1.2.2v4.3c0 .1-.1.2-.2.2h-7.2c-.1 0-.2.1-.2.2v18.6c0 .1-.1.2-.2.2h-5c-.1 0-.2-.1-.2-.2v-18.6c-.1-.1-.2-.2-.3-.2zm16.6-4.7h15.8c.1 0 .2.1.2.2v4.3c0 .1-.1.2-.2.2h-10.5c-.1 0-.2.1-.2.2v4.2c0 .1.1.2.2.2h8c.1 0 .2.1.2.2v4.1c0 .1-.1.2-.2.2h-8c-.1 0-.2.1-.2.2v4.7c0 .1.1.2.2.2h11.2c.1 0 .2.1.2.2v4.3c0 .1-.1.2-.2.2h-16.6c-.1 0-.2-.1-.2-.2v-23.4c.1.1.2 0 .3 0zm22 19.1c.1-.1.2-.1.3 0 .6.7 1.3 1.2 1.9 1.6.7.4 1.5.5 2.5.5.6 0 1.1-.1 1.6-.3.5-.2.9-.5 1.3-.8.4-.4.7-.9.9-1.5.2-.6.3-1.3.3-2.1v-16.3c0-.1.1-.2.2-.2h3c.1 0 .2.1.2.2v16.6c0 1.4-.2 2.5-.6 3.5-.4 1-.9 1.7-1.6 2.4-.7.6-1.5 1-2.4 1.3-.9.3-1.9.4-2.9.4-1.8 0-3.2-.3-4.3-.9-1.1-.6-1.9-1.3-2.7-2.2-.1-.1-.1-.2 0-.3l2.3-1.9zm17.3-.9c.1-.1.2-.1.3 0 .3.3.6.7 1 1 .4.4.9.7 1.4 1.1.5.3 1.1.6 1.7.7.6.2 1.3.3 2.1.3 1.6 0 2.8-.4 3.7-1.1.9-.7 1.3-1.7 1.3-2.9 0-1.3-.5-2.3-1.5-2.9-1-.7-2.4-1.2-4.3-1.6-1-.2-1.9-.5-2.8-.9-.8-.4-1.6-.9-2.2-1.4-.6-.6-1.1-1.2-1.4-2-.3-.7-.5-1.6-.5-2.5 0-.9.2-1.7.5-2.5s.8-1.5 1.5-2.1c.7-.6 1.5-1.1 2.5-1.4 1-.4 2.2-.5 3.5-.5 1.2 0 2.2.1 3 .4.8.2 1.6.6 2.2.9.6.4 1.1.7 1.4 1.1.3.3.5.6.7.8.1.1.1.2 0 .3l-2 1.8c-.1.1-.2.1-.3 0l-.5-.5c-.3-.3-.6-.5-1.1-.8-.4-.3-1-.5-1.5-.7-.6-.2-1.3-.3-2-.3-.8 0-1.4.1-2 .3-.5.2-1 .5-1.4.8s-.6.7-.8 1.1c-.2.4-.2.8-.2 1.2 0 .6.1 1.1.4 1.5.2.4.6.8 1.1 1.1.5.3 1.1.6 1.8.8.7.2 1.5.4 2.4.7.9.2 1.7.5 2.6.8.8.3 1.6.8 2.3 1.4.7.6 1.2 1.3 1.6 2.1.4.8.6 1.9.6 3.1 0 1-.2 2-.6 2.8-.4.9-1 1.6-1.8 2.2-.7.6-1.6 1.1-2.7 1.5-1 .3-2.1.5-3.3.5-1.1 0-2.1-.1-3-.4-.9-.3-1.7-.6-2.5-1-.7-.4-1.4-.8-2-1.3-.5-.4-.9-.9-1.3-1.3-.1-.1-.1-.2 0-.3l2.1-1.9z"/></svg>