<svg xmlns="http://www.w3.org/2000/svg" viewBox="0 0 120 120" enable-background="new 0 0 120 120"><style type="text/css">.createjs-path{fill:#405261;}</style><path class="createjs-path" d="M107.6 30.9l-46.1-26.5c-.9-.5-2.1-.5-3 0l-46.1 26.5c-.9.5-1.5 1.5-1.5 2.6v53c0 1.1.6 2.1 1.5 2.6l46.1 26.5c.9.5 2.1.5 3 0l46.1-26.5c.9-.5 1.5-1.5 1.5-2.6v-53c0-1.1-.6-2.1-1.5-2.6zm-51.1-9.5c0 .2-.1.3-.3.4l-16.5 9.5c-.3.2-.3.7 0 .9l16.5 9.5c.2.1.3.3.3.4v6.9c0 .4-.4.6-.7.4l-30-17.2c-.3-.2-.3-.7 0-.9l30-17.3c.3-.2.7 0 .7.4v7zm37.7 10.8l-30 17.3c-.3.2-.7 0-.7-.4v-6.9c0-.2.1-.3.3-.4l16.5-9.5c.3-.2.3-.7 0-.9l-16.5-9.5c-.2-.1-.3-.3-.3-.4v-6.9c0-.4.4-.6.7-.4l30 17.3c.4 0 .4.5 0 .7z" id="Artwork"/></svg>