<svg xmlns="http://www.w3.org/2000/svg" viewBox="0 0 510 120" enable-background="new 0 0 510 120"><g><path d="M165.794 31.973h37.304c.276 0 .5.224.5.5v10.088c0 .276-.224.5-.5.5h-24.621c-.276 0-.5.224-.5.5v9.92c0 .276.224.5.5.5h18.908c.276 0 .5.224.5.5v9.752c0 .276-.224.5-.5.5h-18.908c-.276 0-.5.224-.5.5v11.096c0 .276.224.5.5.5h26.469c.276 0 .5.224.5.5v10.171c0 .276-.224.5-.5.5h-39.151c-.276 0-.5-.224-.5-.5v-55.027c-.001-.276.223-.5.499-.5zm64.61 0h13.332c.21 0 .397.131.47.328l20.13 55.027c.119.326-.122.672-.47.672h-12.785c-.215 0-.406-.138-.474-.342l-4.056-12.168c-.068-.204-.259-.342-.474-.342h-19.019c-.215 0-.406.138-.474.342l-4.055 12.168c-.068.204-.259.342-.474.342h-12.192c-.349 0-.59-.348-.468-.675l20.543-55.027c.07-.196.257-.325.466-.325zm12.799 32.694l-6.125-19.052c-.148-.461-.799-.463-.951-.003l-6.275 19.052c-.107.323.134.656.475.656h12.399c.34 0 .581-.33.477-.653zm30.928 7.007c.195-.211.521-.214.722-.008.644.662 1.377 1.333 2.199 2.013.979.812 2.071 1.554 3.276 2.226 1.203.672 2.52 1.218 3.948 1.638 1.428.42 2.953.63 4.578.63.951 0 1.902-.139 2.855-.42.952-.279 1.819-.685 2.604-1.218.783-.531 1.413-1.176 1.89-1.932.476-.756.714-1.609.714-2.562 0-2.071-1.008-3.682-3.023-4.83-2.017-1.146-5.208-2.281-9.576-3.401-2.129-.504-4.104-1.231-5.922-2.185-1.821-.951-3.39-2.1-4.704-3.443-1.316-1.344-2.339-2.884-3.066-4.62-.729-1.735-1.092-3.667-1.092-5.796 0-2.352.42-4.564 1.26-6.636.84-2.071 2.113-3.906 3.822-5.502 1.707-1.596 3.835-2.856 6.384-3.78 2.548-.924 5.558-1.386 9.03-1.386 2.855 0 5.376.294 7.56.882 2.185.588 4.045 1.289 5.586 2.1 1.54.812 2.8 1.652 3.78 2.52.774.687 1.4 1.259 1.877 1.717.196.188.208.496.025.698l-6.669 7.359c-.177.196-.468.223-.674.059-.53-.422-1.125-.871-1.783-1.349-.812-.588-1.723-1.134-2.73-1.638s-2.114-.924-3.318-1.26-2.478-.504-3.821-.504c-.896 0-1.778.141-2.646.42-.868.281-1.652.659-2.352 1.134-.701.476-1.26 1.037-1.681 1.68-.42.645-.63 1.331-.63 2.058 0 1.904 1.009 3.444 3.024 4.62 2.016 1.176 4.788 2.156 8.316 2.94 2.07.504 4.102 1.19 6.09 2.058 1.987.869 3.766 2.003 5.334 3.402 1.566 1.4 2.827 3.122 3.779 5.166.952 2.045 1.429 4.522 1.429 7.434 0 2.521-.561 4.845-1.681 6.973s-2.646 3.977-4.577 5.544c-1.933 1.568-4.2 2.786-6.805 3.653-2.604.868-5.418 1.303-8.441 1.303-2.801 0-5.349-.267-7.645-.799-2.297-.532-4.368-1.23-6.216-2.1-1.848-.867-3.515-1.861-4.998-2.982-1.341-1.011-2.51-2.045-3.507-3.102-.181-.192-.175-.492.004-.686l7.471-8.088zm44.203-39.701h37.304c.276 0 .5.224.5.5v10.088c0 .276-.224.5-.5.5h-24.62c-.276 0-.5.224-.5.5v9.92c0 .276.224.5.5.5h18.908c.276 0 .5.224.5.5v9.752c0 .276-.224.5-.5.5h-18.908c-.276 0-.5.224-.5.5v11.096c0 .276.224.5.5.5h26.469c.276 0 .5.224.5.5v10.171c0 .276-.224.5-.5.5h-39.152c-.276 0-.5-.224-.5-.5v-55.027c-.001-.276.223-.5.499-.5zm48.299 0h11.684c.276 0 .5.224.5.5v43.771c0 .276.224.5.5.5h25.797c.276 0 .5.224.5.5v10.256c0 .276-.224.5-.5.5h-38.48c-.276 0-.5-.224-.5-.5v-55.027c-.001-.276.223-.5.499-.5zm47.936 45.012c.204-.18.516-.156.699.045 1.515 1.658 3.043 2.88 4.583 3.662 1.651.84 3.625 1.26 5.922 1.26 1.345 0 2.59-.21 3.738-.63 1.147-.42 2.17-1.077 3.066-1.974.895-.896 1.596-2.044 2.1-3.444.504-1.399.756-3.079.756-5.04v-38.391c0-.276.224-.5.5-.5h7.064c.276 0 .5.224.5.5v39.063c0 3.249-.477 6.006-1.429 8.274-.952 2.268-2.226 4.115-3.821 5.544-1.597 1.428-3.459 2.465-5.586 3.107-2.129.644-4.368.967-6.721.967-4.145 0-7.532-.729-10.164-2.185-2.483-1.372-4.566-3.095-6.251-5.165-.17-.209-.14-.52.062-.699l4.982-4.394zm40.904-2.254c.205-.186.514-.173.699.033.699.776 1.471 1.562 2.317 2.359.979.924 2.086 1.751 3.318 2.479 1.23.729 2.604 1.316 4.116 1.764 1.512.449 3.163.672 4.956.672 3.695 0 6.579-.84 8.651-2.52 2.071-1.681 3.108-3.948 3.108-6.805 0-3.079-1.176-5.389-3.528-6.93-2.352-1.539-5.741-2.785-10.164-3.738-2.408-.504-4.592-1.203-6.552-2.1-1.961-.895-3.654-2.016-5.082-3.36-1.428-1.344-2.534-2.898-3.318-4.662-.784-1.764-1.176-3.766-1.176-6.006 0-2.071.392-4.032 1.176-5.88.784-1.848 1.96-3.472 3.528-4.872 1.567-1.399 3.528-2.52 5.88-3.36 2.353-.84 5.067-1.26 8.148-1.26 2.743 0 5.109.294 7.098.882 1.987.588 3.682 1.302 5.082 2.142 1.399.84 2.52 1.709 3.36 2.604.665.71 1.206 1.314 1.626 1.813.173.206.156.51-.042.692l-4.657 4.293c-.201.185-.512.179-.698-.021-.309-.332-.704-.729-1.186-1.191-.672-.643-1.526-1.273-2.562-1.89-1.037-.616-2.24-1.134-3.611-1.554-1.373-.42-2.955-.63-4.746-.63-1.793 0-3.333.239-4.62.714-1.289.477-2.353 1.092-3.192 1.848s-1.457 1.61-1.848 2.562c-.393.953-.588 1.904-.588 2.856 0 1.4.294 2.591.882 3.57.588.98 1.441 1.848 2.562 2.604 1.12.756 2.506 1.4 4.158 1.932 1.651.533 3.541 1.05 5.67 1.554 2.071.504 4.102 1.163 6.09 1.974 1.987.812 3.766 1.905 5.334 3.276 1.567 1.373 2.814 3.052 3.738 5.04.924 1.988 1.386 4.41 1.386 7.266 0 2.409-.504 4.62-1.512 6.637-1.008 2.016-2.394 3.767-4.158 5.25-1.764 1.484-3.851 2.633-6.258 3.443-2.408.812-5.013 1.219-7.812 1.219-2.633 0-5.027-.309-7.183-.925-2.156-.615-4.116-1.398-5.88-2.352-1.764-.952-3.305-2.002-4.62-3.15-1.174-1.022-2.157-2.035-2.952-3.036-.163-.206-.131-.502.062-.679l5-4.557z" fill="#405261"/><linearGradient id="easeljs-a" gradientUnits="userSpaceOnUse" x1="68.917" y1="120" x2="68.917"><stop offset="0" stop-color="#49CFEF"/><stop offset=".181" stop-color="#4FD0EF"/><stop offset=".419" stop-color="#5FD4F0"/><stop offset=".687" stop-color="#7ADAF1"/><stop offset=".977" stop-color="#A0E2F2"/><stop offset="1" stop-color="#A3E3F2"/></linearGradient><path d="M89.104 15.094h-40.469l2.522-13.462c.178-.947 1.003-1.632 1.964-1.632h31.482c.96 0 1.785.684 1.963 1.629l2.538 13.465zm15.854 83.864h-20.25l3.893 19.434c.187.935 1.007 1.608 1.959 1.608h15.93c1.252 0 2.195-1.14 1.963-2.371l-3.495-18.671zm-75.527 18.673c-.231 1.231.713 2.369 1.964 2.369h15.933c.952 0 1.772-.673 1.959-1.608l3.88-19.434h-20.25l-3.486 18.673zm99.486-91.572v61.875c0 3.314-2.683 6-5.993 6h-108.014c-3.31 0-5.994-2.686-5.994-6v-61.875c0-3.314 2.683-6 5.994-6h108.013c3.31 0 5.994 2.686 5.994 6zm-59.111 34.363c0-9.228-7.48-16.708-16.708-16.708-9.228 0-16.708 7.48-16.708 16.708 0 9.228 7.48 16.708 16.708 16.708 9.228 0 16.708-7.481 16.708-16.708zm33.637 16.617l-25.057-43.4-7.939 13.751c2.735 3.632 4.359 8.146 4.359 13.032 0 6.663-3.02 12.632-7.761 16.617h36.398z" fill="url(#easeljs-a)"/></g></svg>