<svg xmlns="http://www.w3.org/2000/svg" viewBox="0 0 629 120" enable-background="new 0 0 629 120"><path d="M165.294 32.473c0-.276.224-.5.5-.5h19.911c3.473 0 6.439.504 8.904 1.512 2.463 1.008 4.494 2.339 6.09 3.99 1.596 1.652 2.771 3.57 3.527 5.754.758 2.184 1.135 4.452 1.135 6.804 0 3.024-.518 5.67-1.555 7.938-1.035 2.268-2.436 4.157-4.199 5.67-1.764 1.512-3.795 2.66-6.09 3.443-2.297.785-4.703 1.176-7.225 1.176h-8.152c-.276 0-.5.224-.5.5v18.74c0 .276-.224.5-.5.5h-11.347c-.276 0-.5-.224-.5-.5v-55.027zm19.739 25.54c2.352 0 4.213-.714 5.586-2.142 1.371-1.428 2.059-3.289 2.059-5.586 0-2.352-.701-4.27-2.1-5.754-1.4-1.483-3.277-2.226-5.629-2.226h-6.809c-.276 0-.5.224-.5.5v14.708c0 .276.224.5.5.5h6.893zm27.551-25.54c0-.276.224-.5.5-.5h20.332c3.247 0 6.104.462 8.568 1.386 2.463.924 4.521 2.184 6.174 3.78 1.651 1.596 2.884 3.458 3.696 5.586.811 2.129 1.218 4.397 1.218 6.804 0 3.641-.798 6.819-2.395 9.534-1.517 2.584-3.631 4.672-6.338 6.267-.233.137-.319.431-.188.667l11.785 21.261c.185.333-.056.742-.437.742h-12.787c-.189 0-.361-.106-.446-.274l-10.138-20.032c-.085-.168-.258-.274-.446-.274h-6.249c-.276 0-.5.224-.5.5v19.58c0 .276-.224.5-.5.5h-11.348c-.276 0-.5-.224-.5-.5v-55.027zm20.16 24.783c2.352 0 4.2-.699 5.544-2.1 1.344-1.399 2.016-3.163 2.016-5.292 0-2.295-.672-4.116-2.016-5.46-1.344-1.344-3.192-2.016-5.544-2.016h-7.312c-.276 0-.5.224-.5.5v13.868c0 .276.224.5.5.5h7.312zm31.328-25.283h37.304c.276 0 .5.224.5.5v10.088c0 .276-.224.5-.5.5h-24.62c-.276 0-.5.224-.5.5v9.92c0 .276.224.5.5.5h18.908c.276 0 .5.224.5.5v9.752c0 .276-.224.5-.5.5h-18.908c-.276 0-.5.224-.5.5v11.096c0 .276.224.5.5.5h26.469c.276 0 .5.224.5.5v10.171c0 .276-.224.5-.5.5h-39.152c-.276 0-.5-.224-.5-.5v-55.027c-.001-.276.223-.5.499-.5zm49.559 0h11.684c.276 0 .5.224.5.5v43.771c0 .276.224.5.5.5h25.797c.276 0 .5.224.5.5v10.256c0 .276-.224.5-.5.5h-38.48c-.276 0-.5-.224-.5-.5v-55.027c-.001-.276.223-.5.499-.5zm69.051 57.456c-4.145 0-7.994-.757-11.55-2.269-3.557-1.512-6.636-3.583-9.24-6.216-2.604-2.632-4.648-5.754-6.132-9.366s-2.226-7.489-2.226-11.634c0-4.2.741-8.091 2.226-11.676 1.483-3.583 3.528-6.691 6.132-9.324 2.604-2.631 5.684-4.704 9.24-6.216 3.556-1.512 7.405-2.268 11.55-2.268 4.144 0 7.993.756 11.55 2.268 3.556 1.512 6.637 3.584 9.24 6.216 2.604 2.633 4.647 5.741 6.132 9.324 1.483 3.584 2.227 7.476 2.227 11.676 0 4.145-.743 8.021-2.227 11.634-1.484 3.612-3.527 6.734-6.132 9.366-2.604 2.633-5.685 4.704-9.24 6.216-3.557 1.512-7.407 2.269-11.55 2.269zm0-11.929c2.464 0 4.676-.475 6.636-1.428 1.96-.951 3.626-2.239 4.998-3.864 1.372-1.623 2.422-3.499 3.15-5.628.728-2.127 1.092-4.396 1.092-6.804 0-2.407-.364-4.675-1.092-6.804-.729-2.128-1.778-3.99-3.15-5.586-1.372-1.596-3.038-2.856-4.998-3.78s-4.172-1.386-6.636-1.386c-2.465 0-4.69.462-6.678 1.386-1.988.924-3.669 2.184-5.04 3.78-1.373 1.596-2.423 3.458-3.15 5.586-.729 2.129-1.092 4.396-1.092 6.804 0 2.408.363 4.677 1.092 6.804.728 2.129 1.777 4.005 3.15 5.628 1.371 1.625 3.052 2.913 5.04 3.864 1.987.953 4.213 1.428 6.678 1.428zm50.662-45.527h13.332c.21 0 .397.131.47.328l20.13 55.027c.119.326-.122.672-.47.672h-12.785c-.215 0-.406-.138-.474-.342l-4.056-12.168c-.068-.204-.259-.342-.474-.342h-19.019c-.215 0-.406.138-.474.342l-4.055 12.168c-.068.204-.259.342-.474.342h-12.192c-.349 0-.59-.348-.468-.675l20.543-55.027c.071-.196.257-.325.466-.325zm12.8 32.694l-6.125-19.052c-.148-.461-.799-.463-.951-.003l-6.275 19.052c-.107.323.134.656.475.656h12.399c.34 0 .58-.33.477-.653zm27.088-32.194c0-.276.224-.5.5-.5h20.668c4.312 0 8.302.56 11.97 1.68 3.667 1.121 6.832 2.829 9.492 5.124 2.659 2.297 4.731 5.237 6.216 8.82 1.483 3.584 2.227 7.812 2.227 12.684 0 4.648-.756 8.694-2.269 12.138-1.512 3.444-3.599 6.329-6.258 8.652-2.66 2.324-5.825 4.061-9.492 5.208-3.668 1.148-7.658 1.722-11.97 1.722h-20.584c-.276 0-.5-.224-.5-.5v-55.028zm20.413 44.271c5.599 0 9.912-1.47 12.936-4.41 3.024-2.939 4.536-6.985 4.536-12.138 0-2.575-.351-4.914-1.05-7.014-.701-2.1-1.764-3.892-3.192-5.376-1.428-1.483-3.233-2.632-5.418-3.444-2.184-.811-4.787-1.218-7.812-1.218h-7.229c-.276 0-.5.224-.5.5v32.6c0 .276.224.5.5.5h7.229zm38.774.241c.204-.18.516-.156.699.045 1.515 1.658 3.043 2.88 4.583 3.662 1.651.84 3.625 1.26 5.922 1.26 1.345 0 2.59-.21 3.738-.63 1.147-.42 2.17-1.077 3.066-1.974.895-.896 1.596-2.044 2.1-3.444.504-1.399.756-3.079.756-5.04v-38.391c0-.276.224-.5.5-.5h7.064c.276 0 .5.224.5.5v39.063c0 3.249-.477 6.006-1.429 8.274-.952 2.268-2.226 4.115-3.821 5.544-1.597 1.428-3.459 2.465-5.586 3.107-2.129.644-4.368.967-6.721.967-4.145 0-7.532-.729-10.164-2.185-2.483-1.372-4.566-3.095-6.251-5.165-.17-.209-.14-.52.062-.699l4.982-4.394zm40.906-2.254c.205-.186.514-.173.699.033.699.776 1.471 1.562 2.317 2.359.979.924 2.086 1.751 3.318 2.479 1.23.729 2.604 1.316 4.116 1.764 1.512.449 3.163.672 4.956.672 3.695 0 6.579-.84 8.651-2.52 2.071-1.681 3.108-3.948 3.108-6.805 0-3.079-1.176-5.389-3.528-6.93-2.352-1.539-5.741-2.785-10.164-3.738-2.408-.504-4.592-1.203-6.552-2.1-1.961-.895-3.654-2.016-5.082-3.36-1.428-1.344-2.534-2.898-3.318-4.662-.784-1.764-1.176-3.766-1.176-6.006 0-2.071.392-4.032 1.176-5.88.784-1.848 1.96-3.472 3.528-4.872 1.567-1.399 3.528-2.52 5.88-3.36 2.353-.84 5.067-1.26 8.148-1.26 2.743 0 5.109.294 7.098.882 1.987.588 3.682 1.302 5.082 2.142 1.399.84 2.52 1.709 3.36 2.604.665.71 1.206 1.314 1.626 1.813.173.206.156.51-.042.692l-4.656 4.293c-.201.185-.512.179-.698-.021-.309-.332-.704-.729-1.186-1.191-.672-.643-1.526-1.273-2.562-1.89-1.037-.616-2.24-1.134-3.611-1.554-1.373-.42-2.955-.63-4.746-.63-1.793 0-3.333.239-4.62.714-1.289.477-2.353 1.092-3.192 1.848s-1.457 1.61-1.848 2.562c-.393.953-.588 1.904-.588 2.856 0 1.4.294 2.591.882 3.57.588.98 1.441 1.848 2.562 2.604 1.12.756 2.506 1.4 4.158 1.932 1.651.533 3.541 1.05 5.67 1.554 2.071.504 4.102 1.163 6.09 1.974 1.987.812 3.766 1.905 5.334 3.276 1.567 1.373 2.814 3.052 3.738 5.04.924 1.988 1.386 4.41 1.386 7.266 0 2.409-.504 4.62-1.512 6.637-1.008 2.016-2.394 3.767-4.158 5.25-1.764 1.484-3.851 2.633-6.258 3.443-2.408.812-5.013 1.219-7.812 1.219-2.633 0-5.027-.309-7.183-.925-2.156-.615-4.116-1.398-5.88-2.352-1.764-.952-3.305-2.002-4.62-3.15-1.174-1.022-2.157-2.035-2.952-3.036-.163-.206-.131-.502.062-.679l4.999-4.557z" fill="#405261"/><linearGradient id="preloadjs-a" gradientUnits="userSpaceOnUse" x1="69.667" y1="120" x2="69.667" y2=".777"><stop offset="0" stop-color="#E472E6"/><stop offset="1" stop-color="#F0A1F0"/></linearGradient><path d="M124.838 60.828h-19.077v-58.051c0-1.105-.81-2-1.81-2h-68.791c-1 0-1.81.895-1.81 2v57.996l-.1.055h-18.755c-1.782 0-2.674 2.154-1.414 3.414l55.172 55.172c.781.781 2.047.781 2.828 0l55.172-55.172c1.259-1.259.367-3.414-1.415-3.414zm-84.488-53.051h58.411v16.961l-58.411 32.179v-49.14z" fill="url(#preloadjs-a)"/></svg>