<svg xmlns="http://www.w3.org/2000/svg" viewBox="0 0 120 120" enable-background="new 0 0 120 120"><style type="text/css">.reset-icon-st0{fill:#4C6575;}</style><path class="reset-icon-st0" d="M77 60l37.5-37.5c1.2-1.2 1.2-3.1 0-4.2l-12.7-12.8c-1.2-1.2-3.1-1.2-4.2 0l-37.6 37.5-37.5-37.5c-1.2-1.2-3.1-1.2-4.2 0l-12.8 12.7c-1.2 1.2-1.2 3.1 0 4.2l37.5 37.6-37.5 37.5c-1.2 1.2-1.2 3.1 0 4.2l12.7 12.7c1.2 1.2 3.1 1.2 4.2 0l37.6-37.4 37.5 37.5c1.2 1.2 3.1 1.2 4.2 0l12.7-12.7c1.2-1.2 1.2-3.1 0-4.2l-37.4-37.6z"/></svg>