<svg xmlns="http://www.w3.org/2000/svg" viewBox="0 0 535 120" enable-background="new 0 0 535 120"><path d="M169.134 71.674c.195-.211.521-.214.722-.008.644.662 1.377 1.333 2.199 2.013.979.812 2.071 1.554 3.276 2.226 1.203.672 2.52 1.218 3.947 1.638s2.953.63 4.578.63c.951 0 1.902-.139 2.855-.42.953-.279 1.82-.685 2.605-1.218.783-.531 1.412-1.176 1.889-1.932s.715-1.609.715-2.562c0-2.071-1.008-3.682-3.023-4.83-2.018-1.146-5.209-2.281-9.576-3.401-2.129-.504-4.104-1.231-5.923-2.185-1.82-.951-3.389-2.1-4.704-3.443-1.316-1.344-2.339-2.884-3.065-4.62-.729-1.735-1.092-3.667-1.092-5.796 0-2.352.42-4.564 1.26-6.636.84-2.071 2.113-3.906 3.822-5.502 1.707-1.596 3.835-2.856 6.384-3.78 2.547-.924 5.557-1.386 9.029-1.386 2.855 0 5.377.294 7.561.882 2.184.588 4.045 1.289 5.586 2.1 1.539.812 2.799 1.652 3.779 2.52.775.687 1.401 1.259 1.878 1.717.196.188.208.496.025.698l-6.67 7.359c-.177.196-.468.223-.674.059-.53-.422-1.124-.871-1.781-1.349-.812-.588-1.723-1.134-2.73-1.638s-2.115-.924-3.318-1.26c-1.205-.336-2.479-.504-3.822-.504-.896 0-1.777.141-2.646.42-.867.281-1.652.659-2.352 1.134-.701.476-1.26 1.037-1.68 1.68-.42.645-.631 1.331-.631 2.058 0 1.904 1.01 3.444 3.025 4.62 2.016 1.176 4.787 2.156 8.316 2.94 2.07.504 4.102 1.19 6.09 2.058 1.986.869 3.766 2.003 5.334 3.402 1.566 1.4 2.826 3.122 3.779 5.166.951 2.045 1.428 4.522 1.428 7.434 0 2.521-.561 4.845-1.68 6.973-1.121 2.128-2.646 3.977-4.578 5.544-1.932 1.568-4.199 2.786-6.805 3.653-2.604.868-5.418 1.303-8.441 1.303-2.801 0-5.348-.267-7.645-.799s-4.367-1.23-6.215-2.1c-1.849-.867-3.516-1.861-4.998-2.982-1.341-1.011-2.51-2.045-3.507-3.102-.181-.192-.175-.492.004-.686l7.47-8.088zm71.254 17.755c-4.145 0-7.994-.757-11.55-2.269-3.557-1.512-6.636-3.583-9.24-6.216-2.604-2.632-4.648-5.754-6.132-9.366s-2.226-7.489-2.226-11.634c0-4.2.741-8.091 2.226-11.676 1.483-3.583 3.528-6.691 6.132-9.324 2.604-2.631 5.684-4.704 9.24-6.216 3.556-1.512 7.405-2.268 11.55-2.268 4.144 0 7.993.756 11.55 2.268 3.556 1.512 6.637 3.584 9.24 6.216 2.604 2.633 4.647 5.741 6.132 9.324 1.483 3.584 2.227 7.476 2.227 11.676 0 4.145-.743 8.021-2.227 11.634-1.484 3.612-3.527 6.734-6.132 9.366-2.604 2.633-5.685 4.704-9.24 6.216-3.557 1.512-7.406 2.269-11.55 2.269zm0-11.929c2.464 0 4.676-.475 6.636-1.428 1.96-.951 3.626-2.239 4.998-3.864 1.372-1.623 2.422-3.499 3.15-5.628.728-2.127 1.092-4.396 1.092-6.804 0-2.407-.364-4.675-1.092-6.804-.729-2.128-1.778-3.99-3.15-5.586-1.372-1.596-3.038-2.856-4.998-3.78s-4.172-1.386-6.636-1.386c-2.465 0-4.69.462-6.678 1.386-1.988.924-3.669 2.184-5.04 3.78-1.373 1.596-2.423 3.458-3.15 5.586-.729 2.129-1.092 4.396-1.092 6.804 0 2.408.363 4.677 1.092 6.804.728 2.129 1.777 4.005 3.15 5.628 1.371 1.625 3.052 2.913 5.04 3.864 1.988.953 4.213 1.428 6.678 1.428zm37.291-45.527h11.768c.276 0 .5.224.5.5v32.68c0 1.848.182 3.515.546 4.998.364 1.484.967 2.759 1.807 3.822.84 1.064 1.945 1.89 3.317 2.478s3.066.882 5.082.882c1.96 0 3.626-.294 4.998-.882s2.479-1.413 3.318-2.478c.84-1.063 1.441-2.338 1.806-3.822.364-1.483.546-3.15.546-4.998v-32.68c0-.276.224-.5.5-.5h11.853c.276 0 .5.224.5.5v34.275c0 3.36-.546 6.44-1.638 9.24-1.093 2.801-2.661 5.195-4.704 7.182-2.045 1.988-4.523 3.543-7.435 4.662-2.912 1.12-6.16 1.681-9.744 1.681s-6.832-.547-9.743-1.639c-2.913-1.092-5.391-2.646-7.435-4.662-2.045-2.016-3.612-4.423-4.704-7.224-1.092-2.8-1.638-5.88-1.638-9.24v-34.275c0-.276.224-.5.5-.5zm56.7 0h11.328c.167 0 .323.083.416.222l23.212 34.777c.275.411.916.217.916-.278v-34.221c0-.276.224-.5.5-.5h11.516c.276 0 .5.224.5.5v55.027c0 .276-.224.5-.5.5h-10.741c-.167 0-.322-.083-.415-.221l-23.802-35.459c-.275-.41-.915-.215-.915.279v34.901c0 .276-.224.5-.5.5h-11.516c-.276 0-.5-.224-.5-.5v-55.027c.001-.276.224-.5.501-.5zm58.886.5c0-.276.224-.5.5-.5h20.668c4.312 0 8.302.56 11.97 1.68 3.667 1.121 6.832 2.829 9.492 5.124 2.659 2.297 4.731 5.237 6.216 8.82 1.483 3.584 2.227 7.812 2.227 12.684 0 4.648-.756 8.694-2.269 12.138-1.512 3.444-3.599 6.329-6.258 8.652-2.66 2.324-5.825 4.061-9.492 5.208-3.668 1.148-7.658 1.722-11.97 1.722h-20.584c-.276 0-.5-.224-.5-.5v-55.028zm20.412 44.271c5.599 0 9.912-1.47 12.936-4.41 3.024-2.939 4.536-6.985 4.536-12.138 0-2.575-.351-4.914-1.05-7.014-.701-2.1-1.764-3.892-3.192-5.376-1.428-1.483-3.233-2.632-5.418-3.444-2.184-.811-4.787-1.218-7.812-1.218h-7.229c-.276 0-.5.224-.5.5v32.6c0 .276.224.5.5.5h7.229zm39.456.241c.204-.18.516-.156.699.045 1.515 1.658 3.043 2.88 4.583 3.662 1.651.84 3.625 1.26 5.922 1.26 1.345 0 2.59-.21 3.738-.63 1.147-.42 2.17-1.077 3.066-1.974.895-.896 1.596-2.044 2.1-3.444.504-1.399.756-3.079.756-5.04v-38.391c0-.276.224-.5.5-.5h7.064c.276 0 .5.224.5.5v39.063c0 3.249-.477 6.006-1.429 8.274-.952 2.268-2.226 4.115-3.821 5.544-1.597 1.428-3.459 2.465-5.586 3.107-2.129.644-4.368.967-6.721.967-4.145 0-7.532-.729-10.164-2.185-2.483-1.372-4.566-3.095-6.251-5.165-.17-.209-.14-.52.062-.699l4.982-4.394zm40.905-2.254c.205-.186.514-.173.699.033.699.776 1.471 1.562 2.317 2.359.979.924 2.086 1.751 3.318 2.479 1.23.729 2.604 1.316 4.116 1.764 1.512.449 3.163.672 4.956.672 3.695 0 6.579-.84 8.651-2.52 2.071-1.681 3.108-3.948 3.108-6.805 0-3.079-1.176-5.389-3.528-6.93-2.352-1.539-5.741-2.785-10.164-3.738-2.408-.504-4.592-1.203-6.552-2.1-1.961-.895-3.654-2.016-5.082-3.36-1.428-1.344-2.534-2.898-3.318-4.662-.784-1.764-1.176-3.766-1.176-6.006 0-2.071.392-4.032 1.176-5.88.784-1.848 1.96-3.472 3.528-4.872 1.567-1.399 3.528-2.52 5.88-3.36 2.353-.84 5.067-1.26 8.148-1.26 2.743 0 5.109.294 7.098.882 1.987.588 3.682 1.302 5.082 2.142 1.399.84 2.52 1.709 3.36 2.604.665.71 1.206 1.314 1.626 1.813.173.206.156.51-.042.692l-4.656 4.293c-.201.185-.512.179-.698-.021-.309-.332-.704-.729-1.186-1.191-.672-.643-1.526-1.273-2.562-1.89-1.037-.616-2.24-1.134-3.611-1.554-1.373-.42-2.955-.63-4.746-.63-1.793 0-3.333.239-4.62.714-1.289.477-2.353 1.092-3.192 1.848s-1.457 1.61-1.848 2.562c-.393.953-.588 1.904-.588 2.856 0 1.4.294 2.591.882 3.57.588.98 1.441 1.848 2.562 2.604 1.12.756 2.506 1.4 4.158 1.932 1.651.533 3.541 1.05 5.67 1.554 2.071.504 4.102 1.163 6.09 1.974 1.987.812 3.766 1.905 5.334 3.276 1.567 1.373 2.814 3.052 3.738 5.04.924 1.988 1.386 4.41 1.386 7.266 0 2.409-.504 4.62-1.512 6.637-1.008 2.016-2.394 3.767-4.158 5.25-1.764 1.484-3.851 2.633-6.258 3.443-2.408.812-5.013 1.219-7.812 1.219-2.633 0-5.027-.309-7.183-.925-2.156-.615-4.116-1.398-5.88-2.352-1.764-.952-3.305-2.002-4.62-3.15-1.174-1.022-2.157-2.035-2.952-3.036-.163-.206-.131-.502.062-.679l4.999-4.557z" fill="#405261"/><g><linearGradient id="a" gradientUnits="userSpaceOnUse" x1="60" y1="116.136" x2="60" y2="3.364"><stop offset="0" stop-color="#25E582"/><stop offset="1" stop-color="#61E8B0"/></linearGradient><path d="M21.519 57.36c-5.637 4.394-11.001 8.564-18.519 9.458v-33.818c0-1.657 1.343-3 3-3h18c1.657 0 3 1.343 3 3v20.255c-1.886 1.308-3.694 2.711-5.481 4.105zm92.481-22.36h-18c-1.657 0-3 1.343-3 3v26.376c6.305 1.452 14.05 2.433 24 2.597v-28.973c0-1.657-1.343-3-3-3zm-27 27.733v-44.379c0-1.657-1.343-3-3-3h-18c-1.657 0-3 1.343-3 3v32.721c2.433 1.155 4.734 2.46 7.075 3.792 4.762 2.71 9.832 5.591 16.925 7.866zm-30-14.01v-42.359c0-1.657-1.343-3-3-3h-18c-1.657 0-3 1.343-3 3v43.361c3.492-1.646 7.38-2.725 11.965-2.725 4.683 0 8.571.664 12.035 1.723zm-30 13.51l-1.213-.593c-6.101 4.751-12.907 10.251-22.787 11.202v14.158c0 1.657 1.343 3 3 3h18c1.657 0 3-1.343 3-3v-24.767zm60 6.754c-8.71-2.548-14.638-5.916-19.892-8.905-1.414-.805-2.767-1.572-4.108-2.289v43.353c0 1.657 1.343 3 3 3h18c1.657 0 3-1.343 3-3v-32.159zm30 3.987c-9.733-.159-17.542-1.092-24-2.475v11c0 1.657 1.343 3 3 3h18c1.657 0 3-1.343 3-3v-8.525zm-60-17.94c-3.437-1.261-7.216-2.034-12.035-2.034-4.605 0-8.423 1.432-11.965 3.526v56.61c0 1.657 1.343 3 3 3h18c1.657 0 3-1.343 3-3v-58.102z" fill="url(#a)"/></g></svg>