<svg xmlns="http://www.w3.org/2000/svg" viewBox="0 0 548 120" enable-background="new 0 0 548 120"><path d="M179.242 43.145h-17.145c-.276 0-.5-.224-.5-.5v-10.172c0-.276.224-.5.5-.5h47.973c.276 0 .5.224.5.5v10.172c0 .276-.224.5-.5.5h-17.061c-.276 0-.5.224-.5.5v43.855c0 .276-.224.5-.5.5h-11.768c-.276 0-.5-.224-.5-.5v-43.855c.001-.277-.223-.5-.499-.5zm35.412-11.172h12.559c.238 0 .443.168.49.401l7.712 38.013c.106.522.845.539.975.023l9.196-36.547c.056-.222.256-.378.485-.378h10.729c.229 0 .428.155.485.377l9.275 36.549c.131.516.87.497.975-.025l7.634-38.012c.047-.234.252-.402.49-.402h12.051c.326 0 .565.307.485.623l-14.025 55.028c-.056.222-.256.377-.485.377h-12.582c-.227 0-.426-.153-.484-.374l-8.999-34.416c-.13-.497-.835-.498-.967-.002l-9.158 34.42c-.058.219-.257.371-.483.371h-12.581c-.229 0-.429-.156-.485-.379l-13.778-55.027c-.078-.315.16-.62.486-.62zm79.659 0h37.304c.276 0 .5.224.5.5v10.088c0 .276-.224.5-.5.5h-24.62c-.276 0-.5.224-.5.5v9.92c0 .276.224.5.5.5h18.908c.276 0 .5.224.5.5v9.752c0 .276-.224.5-.5.5h-18.908c-.276 0-.5.224-.5.5v11.096c0 .276.224.5.5.5h26.469c.276 0 .5.224.5.5v10.171c0 .276-.224.5-.5.5h-39.152c-.276 0-.5-.224-.5-.5v-55.027c-.001-.276.223-.5.499-.5zm48.299 0h37.304c.276 0 .5.224.5.5v10.088c0 .276-.224.5-.5.5h-24.62c-.276 0-.5.224-.5.5v9.92c0 .276.224.5.5.5h18.908c.276 0 .5.224.5.5v9.752c0 .276-.224.5-.5.5h-18.908c-.276 0-.5.224-.5.5v11.096c0 .276.224.5.5.5h26.469c.276 0 .5.224.5.5v10.171c0 .276-.224.5-.5.5h-39.152c-.276 0-.5-.224-.5-.5v-55.027c-.001-.276.223-.5.499-.5zm48.298 0h11.328c.167 0 .323.083.416.222l23.212 34.777c.275.411.916.217.916-.278v-34.221c0-.276.224-.5.5-.5h11.516c.276 0 .5.224.5.5v55.027c0 .276-.224.5-.5.5h-10.741c-.167 0-.322-.083-.415-.221l-23.801-35.459c-.275-.41-.915-.215-.915.279v34.901c0 .276-.224.5-.5.5h-11.516c-.276 0-.5-.224-.5-.5v-55.027c0-.276.224-.5.5-.5zm60.788 45.012c.204-.18.516-.156.699.045 1.515 1.658 3.043 2.88 4.583 3.662 1.651.84 3.625 1.26 5.922 1.26 1.345 0 2.59-.21 3.738-.63 1.147-.42 2.17-1.077 3.066-1.974.895-.896 1.596-2.044 2.1-3.444.504-1.399.756-3.079.756-5.04v-38.391c0-.276.224-.5.5-.5h7.064c.276 0 .5.224.5.5v39.063c0 3.249-.477 6.006-1.429 8.274-.952 2.268-2.226 4.115-3.821 5.544-1.597 1.428-3.459 2.465-5.586 3.107-2.129.644-4.368.967-6.721.967-4.145 0-7.532-.729-10.164-2.185-2.483-1.372-4.566-3.095-6.251-5.165-.17-.209-.14-.52.062-.699l4.982-4.394zm40.904-2.254c.204-.186.514-.173.699.033.699.776 1.471 1.562 2.317 2.359.979.924 2.086 1.751 3.318 2.479 1.23.729 2.604 1.316 4.116 1.764 1.512.449 3.163.672 4.956.672 3.695 0 6.579-.84 8.651-2.52 2.071-1.681 3.108-3.948 3.108-6.805 0-3.079-1.176-5.389-3.528-6.93-2.352-1.539-5.741-2.785-10.164-3.738-2.408-.504-4.592-1.203-6.552-2.1-1.961-.895-3.654-2.016-5.082-3.36-1.428-1.344-2.534-2.898-3.318-4.662-.784-1.764-1.176-3.766-1.176-6.006 0-2.071.392-4.032 1.176-5.88.784-1.848 1.96-3.472 3.528-4.872 1.567-1.399 3.528-2.52 5.88-3.36 2.353-.84 5.067-1.26 8.148-1.26 2.743 0 5.109.294 7.098.882 1.987.588 3.682 1.302 5.082 2.142 1.399.84 2.52 1.709 3.36 2.604.665.71 1.206 1.314 1.626 1.813.173.206.156.51-.042.692l-4.657 4.293c-.201.185-.512.179-.698-.021-.309-.332-.704-.729-1.186-1.191-.672-.643-1.526-1.273-2.562-1.89-1.037-.616-2.24-1.134-3.611-1.554-1.373-.42-2.955-.63-4.746-.63-1.793 0-3.333.239-4.62.714-1.289.477-2.353 1.092-3.192 1.848s-1.457 1.61-1.848 2.562c-.393.953-.588 1.904-.588 2.856 0 1.4.294 2.591.882 3.57.588.98 1.441 1.848 2.562 2.604 1.12.756 2.506 1.4 4.158 1.932 1.651.533 3.541 1.05 5.67 1.554 2.071.504 4.102 1.163 6.09 1.974 1.987.812 3.766 1.905 5.334 3.276 1.567 1.373 2.814 3.052 3.738 5.04.924 1.988 1.386 4.41 1.386 7.266 0 2.409-.504 4.62-1.512 6.637-1.008 2.016-2.394 3.767-4.158 5.25-1.764 1.484-3.851 2.633-6.258 3.443-2.408.812-5.013 1.219-7.812 1.219-2.633 0-5.027-.309-7.183-.925-2.156-.615-4.116-1.398-5.88-2.352-1.764-.952-3.305-2.002-4.62-3.15-1.174-1.022-2.157-2.035-2.952-3.036-.163-.206-.131-.502.063-.679l4.999-4.557z" fill="#405261"/><linearGradient id="tweenjs-a" gradientUnits="userSpaceOnUse" x1="69.667" y1="116.062" x2="69.667" y2=".034"><stop offset="0" stop-color="#FF5D66"/><stop offset="1" stop-color="#FF758E"/></linearGradient><path d="M118.566 6.339c-12.632-10.191-31.489-7.771-42.118 5.405-10.06 12.471-9.136 30.104 1.703 40.597-6.389 11.123-11.262 23.812-14.241 32.559-2.984-9.572-9.378-23.296-22.19-33.045l.01-.014c-3.106-2.382-10.483-6.403-13.829-7.622-1.556-.567-2.354-2.328-1.783-3.884.57-1.555 2.293-2.371 3.85-1.8 5.484 2.011 10.199 4.659 14.272 7.603.31-1.296.492-2.643.492-4.034 0-9.558-7.748-17.306-17.306-17.306s-17.306 7.748-17.306 17.306 7.748 17.306 17.306 17.306c3.8 0 7.309-1.23 10.163-3.306 9.479 7.078 15.136 16.772 18.459 24.915-9.377 2.373-16.145 9.111-16.145 17.062 0 9.931 10.552 17.982 23.568 17.982s23.568-8.051 23.568-17.982c0-7.748-6.426-14.346-15.431-16.874 1.31-3.554 2.844-7.458 4.579-11.445 2.214-5.089 4.467-9.649 6.74-13.693 12.482 7.76 29.411 4.799 39.267-7.419 10.628-13.177 9.004-32.12-3.628-42.311z" fill="url(#tweenjs-a)"/></svg>